<svg width="200" height="200" viewBox="0 0 200 200" xmlns="http://www.w3.org/2000/svg">
  <defs>
    <linearGradient id="gradient" x1="0%" y1="0%" x2="100%" y2="100%">
      <stop offset="0%" style="stop-color:#4a90e2;stop-opacity:1"/>
      <stop offset="100%" style="stop-color:#357abd;stop-opacity:1"/>
    </linearGradient>
  </defs>
  <circle cx="100" cy="100" r="95" fill="white" stroke="url(#gradient)" stroke-width="2"/>
  <g transform="translate(40, 65)">
    <path d="M20 0h10v70H20z" fill="#4a90e2"/>
    <path d="M45 15h40v10H45zM45 30h40v10H45zM45 45h40v10H45z" fill="#4a90e2"/>
    <path d="M100 15a15 15 0 0 1 0 30 15 15 0 0 1 0-30z" fill="#4a90e2"/>
    <path d="M100 50l10 20H90z" fill="#4a90e2"/>
  </g>
  <text x="100" y="160" text-anchor="middle" font-family="Arial, sans-serif" font-weight="bold" font-size="24" fill="#4a90e2">IBLOG</text>
  <path d="M85 40c0 0-15 10-15 25s15 25 15 25" fill="none" stroke="#4a90e2" stroke-width="2"/>
  <path d="M115 40c0 0 15 10 15 25s-15 25-15 25" fill="none" stroke="#4a90e2" stroke-width="2"/>
</svg>
